<?xml version="1.0" standalone="no"?><!DOCTYPE svg PUBLIC "-//W3C//DTD SVG 1.1//EN" "http://www.w3.org/Graphics/SVG/1.1/DTD/svg11.dtd"><svg t="1652175124881" class="icon" viewBox="0 0 1024 1024" version="1.1" xmlns="http://www.w3.org/2000/svg" p-id="42276" xmlns:xlink="http://www.w3.org/1999/xlink" width="64" height="64"><defs><style type="text/css"></style></defs><path d="M64 154.944a411.52 154.944 0 1 0 823.04 0 411.52 154.944 0 1 0-823.04 0Z" fill="#434343" p-id="42277"></path><path d="M477.632 709.12c-225.024 0-412.608-62.72-412.608-104.704v209.216c0 76.032 184.768 137.344 412.608 137.344s412.608-61.376 412.608-137.344V604.416c0 41.984-187.584 104.704-412.608 104.704z" fill="#434343" p-id="42278"></path><path d="M479.616 387.264C254.592 387.264 67.008 323.136 67.008 280.128v214.144c0 77.696 184.768 140.544 412.608 140.544s412.608-62.848 412.608-140.544V280.128c0 43.008-187.584 107.136-412.608 107.136z" fill="#434343" p-id="42279"></path></svg>