<svg width="11" height="9" viewBox="0 0 11 9" fill="none" xmlns="http://www.w3.org/2000/svg">
<path fill-rule="evenodd" clip-rule="evenodd" d="M8.48864 0.818182H1.63636C1.18449 0.818182 0.818182 1.18449 0.818182 1.63636V7.36364C0.818182 7.81551 1.18449 8.18182 1.63636 8.18182H8.48864C8.94051 8.18182 9.30682 7.81551 9.30682 7.36364V1.63636C9.30682 1.18449 8.94051 0.818182 8.48864 0.818182ZM1.63636 0C0.732625 0 0 0.732625 0 1.63636V7.36364C0 8.26737 0.732625 9 1.63636 9H8.48864C9.39237 9 10.125 8.26737 10.125 7.36364V1.63636C10.125 0.732625 9.39237 0 8.48864 0H1.63636Z" fill="#555555"/>
<path d="M0 1.63636C0 0.732625 0.732625 0 1.63636 0H8.48864C9.39237 0 10.125 0.732625 10.125 1.63636V2.25H0V1.63636Z" fill="#555555"/>
</svg>
