<?xml version="1.0" standalone="no"?><!DOCTYPE svg PUBLIC "-//W3C//DTD SVG 1.1//EN" "http://www.w3.org/Graphics/SVG/1.1/DTD/svg11.dtd"><svg t="1645770420428" class="icon" viewBox="0 0 1024 1024" version="1.1" xmlns="http://www.w3.org/2000/svg" p-id="1363" width="48" height="48" xmlns:xlink="http://www.w3.org/1999/xlink"><defs><style type="text/css"></style></defs><path d="M1017.6 521.6c-3.2-3.2-6.4-6.4-6.4-9.6-6.4-12.8-16-22.4-28.8-32-9.6-6.4-28.8-16-32-25.6 6.4 0 12.8-3.2 19.2-3.2 9.6-3.2 16-3.2 25.6-3.2 3.2 0 9.6-3.2 12.8-3.2v-3.2c-3.2-6.4-9.6-12.8-12.8-19.2-12.8-12.8-28.8-25.6-44.8-38.4-9.6-6.4-19.2-9.6-28.8-16-3.2-3.2-9.6-3.2-9.6-6.4-3.2-6.4-6.4-16-9.6-22.4-6.4-16-16-35.2-22.4-54.4-3.2-12.8-6.4-25.6-12.8-35.2-28.8-51.2-57.6-83.2-102.4-115.2-9.6-6.4-22.4-9.6-35.2-12.8h-19.2c-3.2-3.2-9.6-6.4-12.8-9.6-16-9.6-54.4-35.2-67.2-3.2-6.4 19.2 9.6 38.4 16 48 3.2 6.4 9.6 16 12.8 22.4 3.2 6.4 3.2 9.6 3.2 16 6.4 12.8 9.6 28.8 16 41.6l9.6 19.2c3.2 3.2 6.4 6.4 6.4 9.6-3.2 6.4-3.2 16-6.4 22.4-9.6 35.2-6.4 76.8 6.4 102.4 3.2 6.4 16 25.6 28.8 19.2 12.8-6.4 9.6-22.4 12.8-38.4 0-3.2 0-6.4 3.2-9.6 3.2 9.6 6.4 16 9.6 25.6 9.6 16 22.4 32 35.2 41.6 6.4 6.4 12.8 16 19.2 19.2l-6.4-6.4c-6.4-6.4-9.6-12.8-12.8-19.2-12.8-19.2-22.4-35.2-28.8-54.4-3.2-9.6-9.6-19.2-12.8-28.8-3.2-3.2-3.2-9.6-3.2-9.6-3.2 6.4-9.6 12.8-12.8 19.2-6.4 12.8-6.4 28.8-6.4 44.8-9.6-3.2-12.8-12.8-16-22.4-6.4-22.4-9.6-57.6-3.2-83.2 3.2-6.4 9.6-25.6 6.4-32-3.2-6.4-6.4-9.6-9.6-12.8l-9.6-19.2c-6.4-16-9.6-35.2-16-54.4-3.2-6.4-9.6-16-12.8-22.4-6.4-9.6-9.6-12.8-16-22.4 0-3.2-3.2-9.6 0-12.8 0-3.2 3.2-3.2 3.2-3.2 3.2-3.2 12.8 0 16 3.2 9.6 3.2 19.2 9.6 25.6 16 3.2 3.2 6.4 9.6 12.8 9.6h6.4c9.6 3.2 19.2 0 25.6 3.2 12.8 6.4 25.6 12.8 38.4 22.4 35.2 25.6 64 60.8 83.2 105.6 3.2 6.4 3.2 12.8 6.4 22.4 6.4 16 12.8 28.8 19.2 44.8 6.4 12.8 9.6 28.8 19.2 41.6 3.2 6.4 19.2 9.6 28.8 12.8l19.2 9.6c9.6 6.4 19.2 12.8 25.6 19.2 3.2 3.2 19.2 9.6 19.2 16-22.4 0-38.4 3.2-51.2 9.6-6.4-3.2-12.8-3.2-12.8 3.2 3.2 3.2 3.2 6.4 3.2 9.6 3.2 6.4 9.6 12.8 12.8 19.2 6.4 6.4 12.8 9.6 16 12.8 9.6 6.4 22.4 12.8 32 19.2 6.4 3.2 12.8 9.6 19.2 12.8 3.2 3.2 3.2 6.4 9.6 6.4-3.2 0-3.2-3.2-3.2-6.4z" fill="#02608A" p-id="1364"></path><path d="M713.6 166.4c-3.2 0-6.4 0-9.6 3.2 3.2 0 12.8 25.6 16 25.6 3.2-3.2 6.4-9.6 6.4-12.8 0-6.4-3.2-9.6-9.6-12.8 0-3.2 0-3.2-3.2-3.2zM198.4 518.4l-57.6 201.6-57.6-201.6H32c-9.6 86.4-19.2 176-22.4 275.2h44.8c0-73.6 0-137.6 6.4-208l57.6 208h38.4l57.6-208c6.4 73.6 6.4 137.6 9.6 208h48c-3.2-83.2-12.8-172.8-22.4-275.2H198.4zM390.4 588.8c-6.4 60.8-9.6 112-28.8 163.2 0-12.8-3.2-19.2-9.6-44.8l-32-118.4H275.2l44.8 156.8c6.4 22.4 9.6 38.4 9.6 48 0 9.6 0 16-3.2 19.2-6.4 6.4-16 9.6-28.8 9.6h-16v35.2c6.4 3.2 16 6.4 22.4 6.4 25.6 0 48-16 67.2-54.4 25.6-44.8 48-118.4 64-220.8h-44.8z" fill="#02608A" p-id="1365"></path><path d="M953.6 748.8v-230.4h-48v272h115.2v-41.6zM832 771.2c3.2-3.2 6.4-6.4 9.6-12.8 19.2-25.6 28.8-60.8 28.8-112 0-89.6-32-134.4-92.8-134.4-32 0-54.4 12.8-70.4 35.2-19.2 25.6-28.8 60.8-28.8 112 0 48 9.6 83.2 25.6 105.6 16 19.2 38.4 28.8 67.2 28.8 12.8 0 22.4-3.2 32-3.2l57.6 38.4 16-32-44.8-25.6z m-54.4-25.6c-16 0-28.8-6.4-35.2-22.4-9.6-16-12.8-41.6-12.8-73.6 0-60.8 16-89.6 48-89.6 16 0 28.8 6.4 35.2 22.4 9.6 16 12.8 38.4 12.8 73.6 0 60.8-16 89.6-48 89.6zM633.6 656s-35.2-22.4-51.2-32c-19.2-12.8-32-25.6-32-41.6 0-9.6 6.4-16 12.8-25.6 6.4-6.4 16-9.6 28.8-9.6 16 0 32 6.4 44.8 16l9.6-35.2c-19.2-12.8-38.4-19.2-60.8-19.2s-38.4 6.4-54.4 19.2c-12.8 12.8-25.6 38.4-25.6 60.8 0 25.6 9.6 41.6 28.8 57.6 0 0 32 22.4 51.2 32 19.2 12.8 28.8 25.6 28.8 41.6 0 12.8-3.2 22.4-12.8 28.8-9.6 6.4-19.2 3.2-28.8 3.2-16 0-32-6.4-51.2-16l-9.6 32c22.4 16 44.8 25.6 67.2 25.6 25.6 0 44.8-6.4 60.8-22.4 16-16 22.4-35.2 22.4-57.6 0-25.6-9.6-41.6-28.8-57.6z" fill="#E58E01" p-id="1366"></path></svg>